# xmcd CD database file
#
# Track frame offsets:
#	150
#	19185
#	44752
#	69486
#	86881
#	119723
#	155208
#	182000
#	196012
#	227116
#	253231
#	278346
#
# Disc length: 3955 seconds
#
# Revision: 2
# Processed by: cddbd v1.5PL3 Copyright (c) Steve Scherf et al.
# Submitted via: CDex 1.51
#
DISCID=ae0f710c
DTITLE=Various Artist - Mavi Music 01-00
DYEAR=1999
DGENRE=Other
TTITLE0=Roots Manuva - Movements
TTITLE1=Brother Resistance - Ring de Bell
TTITLE2=Israel Vibration - Mud Up
TTITLE3=Wax Poetic - Earth Song
TTITLE4=Issa - Bagayogo - Sya
TTITLE5=Shri - Meditation
TTITLE6=Tony Allen - Get Together
TTITLE7=Aziza-A - Salla
TTITLE8=Laço Tayfa and Brooklyn Funk Essentials - Istanbul Twilight
TTITLE9=Henri Dikongue - Ndol'asu
TTITLE10=Novalia - Ebla
TTITLE11=Salamat - Mambo el Soudani
EXTD=YEAR: 1999
EXTT0=
EXTT1=
EXTT2=
EXTT3=
EXTT4=
EXTT5=
EXTT6=
EXTT7=
EXTT8=
EXTT9=
EXTT10=
EXTT11=
PLAYORDER=
